<svg xmlns="http://www.w3.org/2000/svg" width="256" height="256" viewBox="0 0 256 256">
<!--same house style as the other hand-authored icons in this folder -
    translucent accent fill + bold accent stroke, no glow filter (thorvg
    blurs the whole composited shape rather than a soft halo behind a crisp
    one), one silhouette path reused for both layers-->
  <path d="M128,210 C60,160 20,110 20,70 C20,30 55,10 85,10 C105,10 122,22 128,42 C134,22 151,10 171,10 C201,10 236,30 236,70 C236,110 196,160 128,210 Z"
        fill="#ff5876" fill-opacity="0.32"/>
  <path d="M128,210 C60,160 20,110 20,70 C20,30 55,10 85,10 C105,10 122,22 128,42 C134,22 151,10 171,10 C201,10 236,30 236,70 C236,110 196,160 128,210 Z"
        fill="none" stroke="#ff5876" stroke-width="13" stroke-linejoin="round"/>
</svg>
